<?xml version="1.0" encoding="UTF-8" standalone="no"?>
<svg
   xmlns:dc="http://purl.org/dc/elements/1.1/"
   xmlns:cc="http://creativecommons.org/ns#"
   xmlns:rdf="http://www.w3.org/1999/02/22-rdf-syntax-ns#"
   xmlns:svg="http://www.w3.org/2000/svg"
   xmlns="http://www.w3.org/2000/svg"
   xmlns:sodipodi="http://sodipodi.sourceforge.net/DTD/sodipodi-0.dtd"
   xmlns:inkscape="http://www.inkscape.org/namespaces/inkscape"
   id="Calque_1"
   data-name="Calque 1"
   viewBox="0 0 72.679998 72.680001"
   version="1.1"
   sodipodi:docname="moabi_logo.svg"
   inkscape:version="1.0.2 (e86c870879, 2021-01-15)"
   width="72.68"
   height="72.68">
  <metadata
     id="metadata101">
    <rdf:RDF>
      <cc:Work
         rdf:about="">
        <dc:format>image/svg+xml</dc:format>
        <dc:type
           rdf:resource="http://purl.org/dc/dcmitype/StillImage" />
        <dc:title>Logos - SeqOIA</dc:title>
      </cc:Work>
    </rdf:RDF>
  </metadata>
  <sodipodi:namedview
     pagecolor="#ffffff"
     bordercolor="#666666"
     borderopacity="1"
     objecttolerance="10"
     gridtolerance="10"
     guidetolerance="10"
     inkscape:pageopacity="0"
     inkscape:pageshadow="2"
     inkscape:window-width="1920"
     inkscape:window-height="1092"
     id="namedview99"
     showgrid="false"
     inkscape:zoom="1.5715523"
     inkscape:cx="-72.193424"
     inkscape:cy="2.7150027"
     inkscape:window-x="0"
     inkscape:window-y="30"
     inkscape:window-maximized="0"
     inkscape:current-layer="Calque_1"
     fit-margin-top="0"
     fit-margin-left="0"
     fit-margin-right="0"
     fit-margin-bottom="0"
     inkscape:document-rotation="0"
     inkscape:snap-global="false" />
  <defs
     id="defs4">
    <style
       id="style2">.cls-1{fill:#94c356;}.cls-2{fill:#6d9140;}</style>
  </defs>
  <title
     id="title6">Logos - SeqOIA</title>
  <path
     class="cls-1"
     d="M 36.34,5.78 A 30.56,30.56 0 1 1 5.79,36.34 30.6,30.6 0 0 1 36.34,5.78 M 36.34,0 A 36.34,36.34 0 1 0 72.68,36.34 36.34,36.34 0 0 0 36.34,0 Z"
     id="path16"
     inkscape:connector-curvature="0"
     style="fill:#94c356" />
  <path
     d="m 41.02,23.82 c 4.68,3.4 8.07,7 8.12,12.23 0.07,7.17 -6.25,11.29 -13.58,16.06 -4.83,3.15 -10.06,6.58 -13.36,11.3 a 30.35,30.35 0 0 0 5.53,2.24 c 2.67,-3.27 6.75,-5.93 11,-8.69 7.64,-5 16.3,-10.62 16.2,-21 -0.06,-6.89 -4,-11.67 -8.81,-15.54 z"
     id="path18"
     inkscape:connector-curvature="0" />
  <path
     d="m 42.14,17.56 c -1.15,-0.79 -2.32,-1.54 -3.46,-2.28 -4.09,-2.65 -8,-5.21 -10.69,-8.33 a 30.67,30.67 0 0 0 -5.6,2.22 c 3.3,4.57 8.42,7.9 13.14,11 l 1.37,0.89 z"
     id="path20"
     inkscape:connector-curvature="0" />
  <path
     class="cls-1"
     d="M 32.14,47.94 C 27.81,44.69 24.73,41.2 24.68,36.2 24.62,29.03 30.94,24.91 38.26,20.14 c 4.57,-3 9.52,-6.21 12.83,-10.55 A 31.06,31.06 0 0 0 45.58,7.21 c -2.67,3 -6.51,5.5 -10.47,8.09 -7.64,5 -16.3,10.62 -16.21,21 0.06,6.58 3.62,11.23 8.17,15 z"
     id="path22"
     inkscape:connector-curvature="0"
     style="fill:#94c356" />
  <path
     class="cls-1"
     d="m 31.67,54.68 c 1.16,0.79 2.33,1.55 3.48,2.29 4.11,2.67 8.07,5.25 10.74,8.39 a 29.93,29.93 0 0 0 5.45,-2.42 c -3.3,-4.5 -8.37,-7.78 -13,-10.82 l -1.36,-0.88 z"
     id="path24"
     inkscape:connector-curvature="0"
     style="fill:#94c356" />
  <path
     class="cls-2"
     d="m 28.31,15.12 c 1.09,0.85 2.22,1.67 3.36,2.45 1.15,-0.78 2.3,-1.54 3.44,-2.27 l 1.79,-1.18 c -1.19,-0.78 -2.36,-1.57 -3.47,-2.37 z"
     id="path26"
     inkscape:connector-curvature="0"
     style="fill:#6d9140" />
  <path
     class="cls-2"
     d="m 45.52,57.13 c -1.09,-0.85 -2.22,-1.67 -3.36,-2.45 -1.15,0.78 -2.31,1.54 -3.44,2.28 l -1.79,1.17 c 1.19,0.79 2.36,1.57 3.47,2.37 z"
     id="path28"
     inkscape:connector-curvature="0"
     style="fill:#6d9140" />
</svg>
